<svg width="41" height="23" viewBox="0 0 41 23" fill="none" xmlns="http://www.w3.org/2000/svg">
<path d="M0.9 18V5.04H3.672V18H0.9ZM2.196 18V15.876H9.9V18H2.196ZM11.2226 18V8.82H13.9226V18H11.2226ZM11.1326 7.596V4.68H14.0126V7.596H11.1326ZM16.0741 18V8.82H18.7201V10.98H18.7741V18H16.0741ZM22.4641 18V12.312C22.4641 11.808 22.3321 11.43 22.0681 11.178C21.8161 10.926 21.4441 10.8 20.9521 10.8C20.5321 10.8 20.1541 10.896 19.8181 11.088C19.4941 11.28 19.2361 11.544 19.0441 11.88C18.8641 12.216 18.7741 12.612 18.7741 13.068L18.5401 10.854C18.8401 10.182 19.2781 9.648 19.8541 9.252C20.4421 8.844 21.1621 8.64 22.0141 8.64C23.0341 8.64 23.8141 8.928 24.3541 9.504C24.8941 10.068 25.1641 10.83 25.1641 11.79V18H22.4641Z" fill="#EEEEEE"/>
<path d="M33.1625 18.18C31.8785 18.18 30.7325 17.898 29.7245 17.334C28.7285 16.77 27.9425 15.984 27.3665 14.976C26.8025 13.968 26.5205 12.798 26.5205 11.466C26.5205 10.146 26.8025 8.994 27.3665 8.01C27.9305 7.014 28.7105 6.24 29.7065 5.688C30.7145 5.136 31.8605 4.86 33.1445 4.86C34.4525 4.86 35.6045 5.136 36.6005 5.688C37.5965 6.24 38.3765 7.014 38.9405 8.01C39.5165 9.006 39.8045 10.164 39.8045 11.484C39.8045 12.324 39.6665 13.116 39.3905 13.86C39.1265 14.604 38.6945 15.246 38.0945 15.786C37.5065 16.326 36.7265 16.728 35.7545 16.992L33.1625 18.18ZM33.1445 16.092C33.9005 16.092 34.5665 15.906 35.1425 15.534C35.7185 15.162 36.1685 14.628 36.4925 13.932C36.8285 13.236 36.9965 12.408 36.9965 11.448C36.9965 10.56 36.8345 9.786 36.5105 9.126C36.1865 8.466 35.7365 7.956 35.1605 7.596C34.5845 7.236 33.9125 7.056 33.1445 7.056C32.3885 7.056 31.7225 7.236 31.1465 7.596C30.5705 7.956 30.1205 8.466 29.7965 9.126C29.4845 9.774 29.3285 10.548 29.3285 11.448C29.3285 12.42 29.4905 13.254 29.8145 13.95C30.1385 14.634 30.5885 15.162 31.1645 15.534C31.7405 15.906 32.4005 16.092 33.1445 16.092ZM33.1625 18.18V16.236L40.4705 15.876V18C39.7025 18 39.0125 18.006 38.4005 18.018C37.8005 18.042 37.2305 18.066 36.6905 18.09C36.1505 18.114 35.5985 18.132 35.0345 18.144C34.4705 18.168 33.8465 18.18 33.1625 18.18Z" fill="#005FAF"/>
<path fill-rule="evenodd" clip-rule="evenodd" d="M13.567 0C12.2822 1.47202 10.5034 3.1206 10.0766 5.17746C9.40343 8.41945 13.3349 8.33117 15.2434 7.53998C20.859 5.21167 26.4141 2.7366 32 0.334351C26.5692 1.78541 21.1571 3.3126 15.7065 4.68752C11.807 5.67181 12.566 2.18045 13.567 0Z" fill="#005FAF"/>
</svg>
