<svg width="183" height="29" viewBox="0 0 183 29" fill="none" xmlns="http://www.w3.org/2000/svg">
<path d="M82 13L48.3468 27.2383C45.5561 28.4128 43.2127 29 41.3164 29C39.1697 29 37.6127 28.2528 36.6455 26.7584C36.0385 25.7985 35.8596 24.5808 36.1088 23.1055C36.3592 21.6301 37.0211 20.0569 38.0945 18.386C38.9889 17.0338 40.4565 15.2562 42.4971 13.0533C41.804 14.136 41.2963 15.3253 40.9944 16.5729C40.4577 18.8482 40.9407 20.5191 42.4434 21.5856C43.159 22.0834 44.1429 22.3322 45.3951 22.3322C46.3956 22.3322 47.5226 22.1722 48.7762 21.8523L82 13Z" fill="#0055FF"/>
<path d="M12.876 21.7109C12.8271 21.8379 12.7783 21.96 12.7295 22.0771C12.6904 22.1943 12.6367 22.3018 12.5684 22.3994C12.5 22.4971 12.4121 22.585 12.3047 22.6631C12.207 22.7412 12.0801 22.8047 11.9238 22.8535C11.3086 23.0488 10.6982 23.2148 10.0928 23.3516C9.4873 23.498 8.87695 23.6738 8.26172 23.8789C8.14453 23.918 8.04199 23.9473 7.9541 23.9668C7.86621 23.9863 7.7832 23.9961 7.70508 23.9961C7.5293 23.9961 7.40234 23.9521 7.32422 23.8643C7.24609 23.7764 7.1875 23.6641 7.14844 23.5273L2.13867 3.60547C2.06055 3.35156 2.02148 3.1416 2.02148 2.97559C2.02148 2.76074 2.08984 2.58496 2.22656 2.44824C2.36328 2.30176 2.58301 2.18457 2.88574 2.09668C3.19824 1.99902 3.59375 1.91113 4.07227 1.83301C4.56055 1.75488 5.15625 1.66699 5.85938 1.56934C6.20117 1.52051 6.48926 1.48633 6.72363 1.4668C6.95801 1.4375 7.1582 1.42285 7.32422 1.42285C7.60742 1.42285 7.79297 1.47168 7.88086 1.56934C7.97852 1.65723 8.06641 1.79883 8.14453 1.99414L10.9424 14.0938L14.8828 2.97559C14.9414 2.81934 14.9902 2.69238 15.0293 2.59473C15.0781 2.49707 15.1611 2.41406 15.2783 2.3457C15.4053 2.26758 15.5908 2.19434 15.835 2.12598C16.0889 2.04785 16.4502 1.95996 16.9189 1.8623C17.6514 1.70605 18.2568 1.59375 18.7354 1.52539C19.2139 1.45703 19.5996 1.42285 19.8926 1.42285C20.2637 1.42285 20.5029 1.4668 20.6104 1.55469C20.7275 1.64258 20.7861 1.76953 20.7861 1.93555C20.7959 2.00391 20.7812 2.07715 20.7422 2.15527C20.7129 2.22363 20.6787 2.31152 20.6396 2.41895L12.876 21.7109ZM27.5664 6.65234C28.4941 6.65234 29.334 6.82812 30.0859 7.17969C30.8477 7.52148 31.4971 7.9707 32.0342 8.52734C32.5811 9.07422 33.001 9.68945 33.2939 10.373C33.5869 11.0566 33.7334 11.7402 33.7334 12.4238C33.7334 13.0293 33.5479 13.6396 33.1768 14.2549C32.8057 14.8604 32.2832 15.4072 31.6094 15.8955C30.9453 16.3838 30.1445 16.7793 29.207 17.082C28.2695 17.3848 27.2393 17.5361 26.1162 17.5361C25.5303 17.5361 24.915 17.4775 24.2705 17.3604C24.3096 17.7803 24.4316 18.1416 24.6367 18.4443C24.8418 18.7471 25.1006 18.9961 25.4131 19.1914C25.7256 19.3867 26.0771 19.5332 26.4678 19.6309C26.8682 19.7188 27.2783 19.7627 27.6982 19.7627C28.167 19.7627 28.6162 19.7236 29.0459 19.6455C29.4854 19.5576 29.9053 19.4453 30.3057 19.3086C30.7061 19.1719 31.0918 19.0205 31.4629 18.8545C31.834 18.6885 32.1855 18.5225 32.5176 18.3564C32.6055 18.3369 32.6787 18.3223 32.7373 18.3125C32.8057 18.293 32.8691 18.2832 32.9277 18.2832C32.9277 18.2832 32.9229 18.3613 32.9131 18.5176C32.9131 18.6738 32.9131 18.8936 32.9131 19.1768C32.9131 19.46 32.9082 19.8018 32.8984 20.2021C32.8984 20.6025 32.8936 21.0469 32.8838 21.5352C32.9131 21.584 32.9326 21.6328 32.9424 21.6816C32.9521 21.7305 32.957 21.7695 32.957 21.7988C32.957 21.916 32.8496 22.043 32.6348 22.1797C32.4199 22.3164 32.1367 22.458 31.7852 22.6045C31.4434 22.751 31.0479 22.8926 30.5986 23.0293C30.1592 23.166 29.71 23.2881 29.251 23.3955C28.792 23.5127 28.3477 23.6006 27.918 23.6592C27.4883 23.7275 27.1123 23.7617 26.79 23.7617C25.7354 23.7617 24.71 23.5762 23.7139 23.2051C22.7275 22.8438 21.8486 22.3213 21.0771 21.6377C20.3154 20.9541 19.7051 20.124 19.2461 19.1475C18.7871 18.1709 18.5576 17.0723 18.5576 15.8516C18.5576 14.5723 18.7773 13.376 19.2168 12.2627C19.6562 11.1396 20.2715 10.1631 21.0625 9.33301C21.8633 8.50293 22.8154 7.84863 23.9189 7.37012C25.0225 6.8916 26.2383 6.65234 27.5664 6.65234ZM27.3906 10.5488C26.9902 10.5488 26.6191 10.6367 26.2773 10.8125C25.9453 10.9785 25.6377 11.2227 25.3545 11.5449C25.0811 11.8574 24.8418 12.2383 24.6367 12.6875C24.4316 13.127 24.2656 13.6152 24.1387 14.1523C25.1445 13.9766 25.9795 13.791 26.6436 13.5957C27.3076 13.4004 27.8398 13.2051 28.2402 13.0098C28.6406 12.8047 28.9238 12.6045 29.0898 12.4092C29.2559 12.2041 29.3389 12.0088 29.3389 11.8232C29.3389 11.6475 29.2705 11.4814 29.1338 11.3252C29.0068 11.1689 28.8457 11.0322 28.6504 10.915C28.4551 10.7979 28.2402 10.71 28.0059 10.6514C27.7812 10.583 27.5762 10.5488 27.3906 10.5488ZM47.0469 11.0762C46.8418 11.0566 46.6123 11.0371 46.3584 11.0176C46.1045 10.9883 45.8359 10.9736 45.5527 10.9736C45.123 10.9736 44.6836 11.0127 44.2344 11.0908C43.7949 11.1592 43.3848 11.3008 43.0039 11.5156C42.623 11.7305 42.2959 12.0283 42.0225 12.4092C41.749 12.7803 41.5732 13.2637 41.4951 13.8594C41.4268 14.582 41.3682 15.1777 41.3193 15.6465C41.2803 16.1055 41.251 16.4863 41.2314 16.7891C41.2119 17.082 41.1924 17.3213 41.1729 17.5068C41.1631 17.6826 41.1533 17.8486 41.1436 18.0049C41.1436 18.0439 41.1338 18.1514 41.1143 18.3271C41.1045 18.5029 41.085 18.708 41.0557 18.9424C41.0264 19.1768 40.9971 19.4307 40.9678 19.7041C40.9482 19.9775 40.9238 20.2314 40.8945 20.4658C40.8652 20.7002 40.8408 20.9053 40.8213 21.0811C40.8115 21.2568 40.8066 21.3643 40.8066 21.4033C40.8066 21.4814 40.8066 21.5498 40.8066 21.6084C40.8164 21.6572 40.8213 21.7061 40.8213 21.7549C40.8213 21.833 40.7822 21.9014 40.7041 21.96C40.6357 22.0088 40.4746 22.0674 40.2207 22.1357L36.3389 23.5273C36.2314 23.5664 36.0898 23.6152 35.9141 23.6738C35.7383 23.7324 35.5674 23.7617 35.4014 23.7617C35.2646 23.7617 35.1426 23.7275 35.0352 23.6592C34.9375 23.5908 34.8887 23.4736 34.8887 23.3076L36.1484 8.79102C36.1777 8.46875 36.2119 8.24902 36.251 8.13184C36.2998 8.00488 36.4121 7.92188 36.5879 7.88281C37.4766 7.70703 38.3945 7.53125 39.3418 7.35547C40.2891 7.16992 41.207 6.93555 42.0957 6.65234C42.1738 6.65234 42.2178 6.66699 42.2275 6.69629C42.2471 6.71582 42.2568 6.75 42.2568 6.79883C42.2568 6.81836 42.252 6.84766 42.2422 6.88672C42.2422 6.92578 42.2275 7.01367 42.1982 7.15039C42.1787 7.28711 42.1445 7.49707 42.0957 7.78027C42.0566 8.05371 41.998 8.43945 41.9199 8.9375C42.3691 8.58594 42.8623 8.26367 43.3994 7.9707C43.9463 7.67773 44.4932 7.42871 45.04 7.22363C45.5869 7.00879 46.1143 6.84277 46.6221 6.72559C47.1299 6.59863 47.5742 6.53516 47.9551 6.53516L47.0469 11.0762ZM55.7021 11.7061C55.5654 12.7314 55.4336 13.7568 55.3066 14.7822C55.1895 15.7979 55.1162 16.75 55.0869 17.6387C55.0869 18.0195 55.1162 18.3369 55.1748 18.5908C55.2334 18.8447 55.3164 19.0449 55.4238 19.1914C55.541 19.3379 55.6777 19.4453 55.834 19.5137C55.9902 19.5723 56.166 19.6016 56.3613 19.6016C56.6738 19.6016 57.0156 19.5576 57.3867 19.4697C57.7578 19.3721 58.1289 19.25 58.5 19.1035C58.6172 19.0547 58.7148 19.0205 58.793 19.001C58.8809 18.9717 58.9541 18.957 59.0127 18.957C59.1104 18.957 59.1738 19.001 59.2031 19.0889C59.2422 19.1768 59.2764 19.333 59.3057 19.5576C59.3447 19.7725 59.3984 20.0654 59.4668 20.4365C59.5352 20.8076 59.6475 21.2764 59.8037 21.8428C59.8135 21.8916 59.8184 21.9355 59.8184 21.9746C59.8281 22.0039 59.833 22.0332 59.833 22.0625C59.833 22.1992 59.7793 22.2969 59.6719 22.3555C59.5742 22.4141 59.4082 22.4824 59.1738 22.5605C58.7734 22.6973 58.3486 22.8389 57.8994 22.9854C57.46 23.1221 57.0205 23.249 56.5811 23.3662C56.1514 23.4834 55.7363 23.5762 55.3359 23.6445C54.9355 23.7227 54.584 23.7617 54.2812 23.7617C52.6504 23.7617 51.459 23.3564 50.707 22.5459C49.9648 21.7354 49.5938 20.5 49.5938 18.8398C49.5938 18.5566 49.6035 18.2686 49.623 17.9756C49.6426 17.6729 49.667 17.3604 49.6963 17.0381C49.7939 16.0615 49.877 15.1387 49.9453 14.2695C50.0234 13.3906 50.1016 12.5508 50.1797 11.75H48.6416C48.1143 11.75 47.7334 11.7305 47.499 11.6914C47.2646 11.6426 47.1475 11.5498 47.1475 11.4131C47.1475 11.374 47.1963 11.2715 47.2939 11.1055C47.3916 10.9297 47.5137 10.7246 47.6602 10.4902C47.8164 10.2461 47.9824 9.9873 48.1582 9.71387C48.334 9.44043 48.5 9.18652 48.6562 8.95215C48.8223 8.70801 48.9639 8.49805 49.0811 8.32227C49.1982 8.14648 49.2715 8.03906 49.3008 8H50.3408C50.4287 7.25781 50.4971 6.6377 50.5459 6.13965C50.6045 5.63184 50.6484 5.21191 50.6777 4.87988C50.7168 4.54785 50.751 4.29395 50.7803 4.11816C50.8096 3.93262 50.8389 3.7959 50.8682 3.70801C50.9072 3.62012 50.9512 3.56641 51 3.54688C51.0586 3.51758 51.1318 3.49316 51.2197 3.47363C51.6592 3.38574 52.084 3.30762 52.4941 3.23926C52.9043 3.16113 53.3145 3.08301 53.7246 3.00488C54.1348 2.92676 54.5498 2.83887 54.9697 2.74121C55.3994 2.63379 55.8438 2.51172 56.3027 2.375C56.332 2.375 56.3516 2.375 56.3613 2.375C56.3711 2.36523 56.3906 2.36035 56.4199 2.36035C56.5371 2.36035 56.5957 2.39941 56.5957 2.47754V2.50684C56.5469 3.04395 56.4688 3.79102 56.3613 4.74805C56.2637 5.70508 56.1514 6.78906 56.0244 8H59.9502C60.0283 8 60.1016 8.0293 60.1699 8.08789C60.248 8.13672 60.2871 8.22461 60.2871 8.35156C60.2871 8.40039 60.2285 8.57617 60.1113 8.87891C59.9941 9.18164 59.8281 9.57715 59.6133 10.0654L59.0859 11.252C59.0176 11.3984 58.9443 11.5059 58.8662 11.5742C58.7979 11.6426 58.6514 11.6865 58.4268 11.7061H55.7021ZM69.4844 6.65234C70.4121 6.65234 71.252 6.82812 72.0039 7.17969C72.7656 7.52148 73.415 7.9707 73.9521 8.52734C74.499 9.07422 74.9189 9.68945 75.2119 10.373C75.5049 11.0566 75.6514 11.7402 75.6514 12.4238C75.6514 13.0293 75.4658 13.6396 75.0947 14.2549C74.7236 14.8604 74.2012 15.4072 73.5273 15.8955C72.8633 16.3838 72.0625 16.7793 71.125 17.082C70.1875 17.3848 69.1572 17.5361 68.0342 17.5361C67.4482 17.5361 66.833 17.4775 66.1885 17.3604C66.2275 17.7803 66.3496 18.1416 66.5547 18.4443C66.7598 18.7471 67.0186 18.9961 67.3311 19.1914C67.6436 19.3867 67.9951 19.5332 68.3857 19.6309C68.7861 19.7188 69.1963 19.7627 69.6162 19.7627C70.085 19.7627 70.5342 19.7236 70.9639 19.6455C71.4033 19.5576 71.8232 19.4453 72.2236 19.3086C72.624 19.1719 73.0098 19.0205 73.3809 18.8545C73.752 18.6885 74.1035 18.5225 74.4355 18.3564C74.5234 18.3369 74.5967 18.3223 74.6553 18.3125C74.7236 18.293 74.7871 18.2832 74.8457 18.2832C74.8457 18.2832 74.8408 18.3613 74.8311 18.5176C74.8311 18.6738 74.8311 18.8936 74.8311 19.1768C74.8311 19.46 74.8262 19.8018 74.8164 20.2021C74.8164 20.6025 74.8115 21.0469 74.8018 21.5352C74.8311 21.584 74.8506 21.6328 74.8604 21.6816C74.8701 21.7305 74.875 21.7695 74.875 21.7988C74.875 21.916 74.7676 22.043 74.5527 22.1797C74.3379 22.3164 74.0547 22.458 73.7031 22.6045C73.3613 22.751 72.9658 22.8926 72.5166 23.0293C72.0771 23.166 71.6279 23.2881 71.1689 23.3955C70.71 23.5127 70.2656 23.6006 69.8359 23.6592C69.4062 23.7275 69.0303 23.7617 68.708 23.7617C67.6533 23.7617 66.6279 23.5762 65.6318 23.2051C64.6455 22.8438 63.7666 22.3213 62.9951 21.6377C62.2334 20.9541 61.623 20.124 61.1641 19.1475C60.7051 18.1709 60.4756 17.0723 60.4756 15.8516C60.4756 14.5723 60.6953 13.376 61.1348 12.2627C61.5742 11.1396 62.1895 10.1631 62.9805 9.33301C63.7812 8.50293 64.7334 7.84863 65.8369 7.37012C66.9404 6.8916 68.1562 6.65234 69.4844 6.65234ZM69.3086 10.5488C68.9082 10.5488 68.5371 10.6367 68.1953 10.8125C67.8633 10.9785 67.5557 11.2227 67.2725 11.5449C66.999 11.8574 66.7598 12.2383 66.5547 12.6875C66.3496 13.127 66.1836 13.6152 66.0566 14.1523C67.0625 13.9766 67.8975 13.791 68.5615 13.5957C69.2256 13.4004 69.7578 13.2051 70.1582 13.0098C70.5586 12.8047 70.8418 12.6045 71.0078 12.4092C71.1738 12.2041 71.2568 12.0088 71.2568 11.8232C71.2568 11.6475 71.1885 11.4814 71.0518 11.3252C70.9248 11.1689 70.7637 11.0322 70.5684 10.915C70.373 10.7979 70.1582 10.71 69.9238 10.6514C69.6992 10.583 69.4941 10.5488 69.3086 10.5488ZM85.2441 23.8496C85.2344 23.8398 85.1611 23.708 85.0244 23.4541C84.8975 23.21 84.7266 22.8926 84.5117 22.502C84.3066 22.1016 84.0723 21.6572 83.8086 21.1689C83.5547 20.6807 83.2959 20.1875 83.0322 19.6895C82.6611 20.1875 82.2949 20.6807 81.9336 21.1689C81.5723 21.6572 81.25 22.1016 80.9668 22.502C80.6836 22.8926 80.4492 23.21 80.2637 23.4541C80.0781 23.708 79.9805 23.8398 79.9707 23.8496C79.9023 23.9473 79.8096 23.9961 79.6924 23.9961C79.6338 23.9961 79.5947 23.9912 79.5752 23.9814C79.2822 23.835 78.9648 23.7031 78.623 23.5859C78.2812 23.4785 77.9297 23.376 77.5684 23.2783C77.2168 23.1904 76.8604 23.1025 76.499 23.0146C76.1377 22.9365 75.791 22.8535 75.459 22.7656C75.3613 22.7461 75.3125 22.6973 75.3125 22.6191C75.3125 22.5508 75.3516 22.4629 75.4297 22.3555C75.5078 22.248 75.6299 22.082 75.7959 21.8574L80.6445 15.2217C80.0586 14.1377 79.4775 13.0732 78.9014 12.0283C78.335 10.9834 77.749 9.9043 77.1436 8.79102C77.0361 8.5957 76.9531 8.44434 76.8945 8.33691C76.8359 8.22949 76.8066 8.13672 76.8066 8.05859C76.8066 7.9707 76.8701 7.91211 76.9971 7.88281C77.7295 7.7168 78.4766 7.5459 79.2383 7.37012C80.0098 7.18457 80.7227 6.9502 81.377 6.66699C81.4062 6.65723 81.4502 6.65234 81.5088 6.65234C81.6357 6.65234 81.7188 6.70117 81.7578 6.79883L83.9551 10.7832L87.0166 6.79883C87.085 6.70117 87.1777 6.65234 87.2949 6.65234C87.3535 6.65234 87.3926 6.65723 87.4121 6.66699C88.0078 6.9502 88.6719 7.18457 89.4043 7.37012C90.1465 7.5459 90.8594 7.7168 91.543 7.88281C91.6406 7.91211 91.6895 7.95605 91.6895 8.01465C91.6895 8.10254 91.6504 8.2002 91.5723 8.30762C91.4941 8.40527 91.3721 8.56641 91.2061 8.79102C90.3564 9.9043 89.5312 10.9834 88.7305 12.0283C87.9297 13.0635 87.1338 14.1279 86.3428 15.2217L89.8584 21.8574C89.9561 22.043 90.0342 22.1895 90.0928 22.2969C90.1514 22.4043 90.1807 22.4971 90.1807 22.5752C90.1807 22.6729 90.1221 22.7363 90.0049 22.7656C89.2725 22.9316 88.5205 23.1025 87.749 23.2783C86.9873 23.4639 86.2793 23.6982 85.625 23.9814C85.5957 23.9912 85.5518 23.9961 85.4932 23.9961C85.3857 23.9961 85.3027 23.9473 85.2441 23.8496ZM117.818 11.0762C117.613 11.0566 117.384 11.0371 117.13 11.0176C116.876 10.9883 116.607 10.9736 116.324 10.9736C115.895 10.9736 115.455 11.0127 115.006 11.0908C114.566 11.1592 114.156 11.3008 113.775 11.5156C113.395 11.7305 113.067 12.0283 112.794 12.4092C112.521 12.7803 112.345 13.2637 112.267 13.8594C112.198 14.582 112.14 15.1777 112.091 15.6465C112.052 16.1055 112.022 16.4863 112.003 16.7891C111.983 17.082 111.964 17.3213 111.944 17.5068C111.935 17.6826 111.925 17.8486 111.915 18.0049C111.915 18.0439 111.905 18.1514 111.886 18.3271C111.876 18.5029 111.856 18.708 111.827 18.9424C111.798 19.1768 111.769 19.4307 111.739 19.7041C111.72 19.9775 111.695 20.2314 111.666 20.4658C111.637 20.7002 111.612 20.9053 111.593 21.0811C111.583 21.2568 111.578 21.3643 111.578 21.4033C111.578 21.4814 111.578 21.5498 111.578 21.6084C111.588 21.6572 111.593 21.7061 111.593 21.7549C111.593 21.833 111.554 21.9014 111.476 21.96C111.407 22.0088 111.246 22.0674 110.992 22.1357L107.11 23.5273C107.003 23.5664 106.861 23.6152 106.686 23.6738C106.51 23.7324 106.339 23.7617 106.173 23.7617C106.036 23.7617 105.914 23.7275 105.807 23.6592C105.709 23.5908 105.66 23.4736 105.66 23.3076L106.92 8.79102C106.949 8.46875 106.983 8.24902 107.022 8.13184C107.071 8.00488 107.184 7.92188 107.359 7.88281C108.248 7.70703 109.166 7.53125 110.113 7.35547C111.061 7.16992 111.979 6.93555 112.867 6.65234C112.945 6.65234 112.989 6.66699 112.999 6.69629C113.019 6.71582 113.028 6.75 113.028 6.79883C113.028 6.81836 113.023 6.84766 113.014 6.88672C113.014 6.92578 112.999 7.01367 112.97 7.15039C112.95 7.28711 112.916 7.49707 112.867 7.78027C112.828 8.05371 112.77 8.43945 112.691 8.9375C113.141 8.58594 113.634 8.26367 114.171 7.9707C114.718 7.67773 115.265 7.42871 115.812 7.22363C116.358 7.00879 116.886 6.84277 117.394 6.72559C117.901 6.59863 118.346 6.53516 118.727 6.53516L117.818 11.0762ZM133.271 20.0557C133.261 20.0947 133.256 20.1338 133.256 20.1729C133.256 20.2021 133.256 20.2314 133.256 20.2607C133.256 20.5049 133.295 20.71 133.373 20.876C133.451 21.0322 133.534 21.1641 133.622 21.2715C133.72 21.3691 133.808 21.4521 133.886 21.5205C133.964 21.5791 134.003 21.6328 134.003 21.6816C134.003 21.8184 133.856 21.9453 133.563 22.0625L129.623 23.7471C129.613 23.7568 129.579 23.7617 129.521 23.7617C129.442 23.7617 129.364 23.6934 129.286 23.5566C129.208 23.4199 129.13 23.2441 129.052 23.0293C128.983 22.8242 128.915 22.6045 128.847 22.3701C128.788 22.126 128.734 21.9014 128.686 21.6963C128.07 22.4092 127.406 22.9316 126.693 23.2637C125.98 23.5957 125.272 23.7617 124.569 23.7617C123.749 23.7617 122.948 23.5811 122.167 23.2197C121.386 22.8584 120.692 22.3457 120.087 21.6816C119.481 21.0078 118.993 20.1973 118.622 19.25C118.261 18.3027 118.08 17.2383 118.08 16.0566C118.08 14.6602 118.28 13.3857 118.681 12.2334C119.091 11.0811 119.643 10.0898 120.336 9.25977C121.029 8.42969 121.835 7.79004 122.753 7.34082C123.681 6.88184 124.662 6.65234 125.697 6.65234C126.43 6.65234 127.123 6.80371 127.777 7.10645C128.432 7.39941 129.052 7.78027 129.638 8.24902C129.696 7.95605 129.73 7.72168 129.74 7.5459C129.75 7.37012 129.77 7.2334 129.799 7.13574C129.838 7.03809 129.906 6.97461 130.004 6.94531C130.102 6.90625 130.263 6.87695 130.487 6.85742C131.19 6.75977 131.889 6.67187 132.582 6.59375C133.285 6.50586 134.018 6.44238 134.779 6.40332L133.271 20.0557ZM128.891 14.5332C128.988 13.9766 129.052 13.4541 129.081 12.9658C129.12 12.4678 129.149 12.0137 129.169 11.6035C129.013 11.4863 128.842 11.3643 128.656 11.2373C128.48 11.1104 128.285 10.9932 128.07 10.8857C127.865 10.7686 127.646 10.6758 127.411 10.6074C127.187 10.5391 126.947 10.5049 126.693 10.5049C126.166 10.5049 125.722 10.6758 125.36 11.0176C125.009 11.3594 124.721 11.7793 124.496 12.2773C124.281 12.7754 124.125 13.3027 124.027 13.8594C123.939 14.416 123.896 14.9092 123.896 15.3389C123.896 16.8818 124.096 18.0146 124.496 18.7373C124.906 19.4502 125.473 19.8066 126.195 19.8066C126.488 19.8066 126.815 19.7236 127.177 19.5576C127.538 19.3916 127.904 19.1621 128.275 18.8691L128.891 14.5332ZM147.185 14.665C147.214 14.3525 147.243 14.0254 147.272 13.6836C147.312 13.3418 147.355 12.9854 147.404 12.6143C147.18 12.0283 146.862 11.5547 146.452 11.1934C146.042 10.8223 145.529 10.6367 144.914 10.6367C144.309 10.6367 143.796 10.8125 143.376 11.1641C142.956 11.5059 142.619 11.9307 142.365 12.4385C142.111 12.9463 141.926 13.4834 141.809 14.0498C141.701 14.6064 141.647 15.0996 141.647 15.5293C141.647 16.0566 141.677 16.5791 141.735 17.0967C141.804 17.6143 141.906 18.083 142.043 18.5029C142.189 18.9229 142.38 19.2646 142.614 19.5283C142.849 19.7822 143.142 19.9092 143.493 19.9092C144.353 19.8799 145.051 19.6846 145.588 19.3232C146.125 18.9619 146.555 18.5225 146.877 18.0049L147.185 14.665ZM152.297 21.5205C152.297 21.54 152.292 21.5645 152.282 21.5938C152.282 21.6133 152.282 21.6328 152.282 21.6523C152.282 21.7012 152.282 21.7402 152.282 21.7695C152.292 21.7988 152.297 21.8281 152.297 21.8574C152.297 21.9453 152.263 22.0186 152.194 22.0771C152.136 22.126 151.975 22.1846 151.711 22.2529L147.785 23.5273C147.678 23.5664 147.536 23.6152 147.36 23.6738C147.185 23.7324 147.014 23.7617 146.848 23.7617C146.711 23.7617 146.589 23.7275 146.481 23.6592C146.384 23.5908 146.335 23.4639 146.335 23.2783C146.335 23.1025 146.335 22.9609 146.335 22.8535C146.345 22.7461 146.35 22.6484 146.35 22.5605C146.359 22.4629 146.369 22.3604 146.379 22.2529C146.398 22.1455 146.418 22.0039 146.438 21.8281C145.705 22.4141 144.948 22.8828 144.167 23.2344C143.396 23.5859 142.58 23.7617 141.721 23.7617C140.783 23.7617 139.948 23.5371 139.216 23.0879C138.493 22.6484 137.883 22.0576 137.385 21.3154C136.887 20.5635 136.506 19.709 136.242 18.752C135.988 17.7852 135.861 16.7793 135.861 15.7344C135.861 14.377 136.081 13.1416 136.521 12.0283C136.97 10.9053 137.575 9.94824 138.337 9.15723C139.099 8.35645 139.987 7.74121 141.003 7.31152C142.019 6.87207 143.098 6.65234 144.24 6.65234C144.855 6.65234 145.441 6.81348 145.998 7.13574C146.564 7.45801 147.097 7.87305 147.595 8.38086C147.624 7.90234 147.658 7.38477 147.697 6.82812C147.736 6.26172 147.775 5.69043 147.814 5.11426C147.854 4.52832 147.893 3.95215 147.932 3.38574C147.971 2.81934 148.005 2.30176 148.034 1.83301C148.034 1.74512 148.063 1.67676 148.122 1.62793C148.19 1.56934 148.356 1.50586 148.62 1.4375L152.736 0.456055C152.844 0.436523 152.985 0.392578 153.161 0.324219C153.337 0.255859 153.508 0.22168 153.674 0.22168C153.801 0.22168 153.918 0.250977 154.025 0.30957C154.143 0.368164 154.201 0.480469 154.201 0.646484C154.201 0.666016 154.196 0.709961 154.187 0.77832C154.187 0.836914 154.187 0.875977 154.187 0.895508L152.297 21.5205ZM163.809 6.65234C164.736 6.65234 165.576 6.82812 166.328 7.17969C167.09 7.52148 167.739 7.9707 168.276 8.52734C168.823 9.07422 169.243 9.68945 169.536 10.373C169.829 11.0566 169.976 11.7402 169.976 12.4238C169.976 13.0293 169.79 13.6396 169.419 14.2549C169.048 14.8604 168.525 15.4072 167.852 15.8955C167.188 16.3838 166.387 16.7793 165.449 17.082C164.512 17.3848 163.481 17.5361 162.358 17.5361C161.772 17.5361 161.157 17.4775 160.513 17.3604C160.552 17.7803 160.674 18.1416 160.879 18.4443C161.084 18.7471 161.343 18.9961 161.655 19.1914C161.968 19.3867 162.319 19.5332 162.71 19.6309C163.11 19.7188 163.521 19.7627 163.94 19.7627C164.409 19.7627 164.858 19.7236 165.288 19.6455C165.728 19.5576 166.147 19.4453 166.548 19.3086C166.948 19.1719 167.334 19.0205 167.705 18.8545C168.076 18.6885 168.428 18.5225 168.76 18.3564C168.848 18.3369 168.921 18.3223 168.979 18.3125C169.048 18.293 169.111 18.2832 169.17 18.2832C169.17 18.2832 169.165 18.3613 169.155 18.5176C169.155 18.6738 169.155 18.8936 169.155 19.1768C169.155 19.46 169.15 19.8018 169.141 20.2021C169.141 20.6025 169.136 21.0469 169.126 21.5352C169.155 21.584 169.175 21.6328 169.185 21.6816C169.194 21.7305 169.199 21.7695 169.199 21.7988C169.199 21.916 169.092 22.043 168.877 22.1797C168.662 22.3164 168.379 22.458 168.027 22.6045C167.686 22.751 167.29 22.8926 166.841 23.0293C166.401 23.166 165.952 23.2881 165.493 23.3955C165.034 23.5127 164.59 23.6006 164.16 23.6592C163.73 23.7275 163.354 23.7617 163.032 23.7617C161.978 23.7617 160.952 23.5762 159.956 23.2051C158.97 22.8438 158.091 22.3213 157.319 21.6377C156.558 20.9541 155.947 20.124 155.488 19.1475C155.029 18.1709 154.8 17.0723 154.8 15.8516C154.8 14.5723 155.02 13.376 155.459 12.2627C155.898 11.1396 156.514 10.1631 157.305 9.33301C158.105 8.50293 159.058 7.84863 160.161 7.37012C161.265 6.8916 162.48 6.65234 163.809 6.65234ZM163.633 10.5488C163.232 10.5488 162.861 10.6367 162.52 10.8125C162.188 10.9785 161.88 11.2227 161.597 11.5449C161.323 11.8574 161.084 12.2383 160.879 12.6875C160.674 13.127 160.508 13.6152 160.381 14.1523C161.387 13.9766 162.222 13.791 162.886 13.5957C163.55 13.4004 164.082 13.2051 164.482 13.0098C164.883 12.8047 165.166 12.6045 165.332 12.4092C165.498 12.2041 165.581 12.0088 165.581 11.8232C165.581 11.6475 165.513 11.4814 165.376 11.3252C165.249 11.1689 165.088 11.0322 164.893 10.915C164.697 10.7979 164.482 10.71 164.248 10.6514C164.023 10.583 163.818 10.5488 163.633 10.5488ZM171.38 18.957C171.38 18.9473 171.375 18.9424 171.365 18.9424C171.365 18.9326 171.365 18.9229 171.365 18.9131C171.365 18.7861 171.434 18.7227 171.57 18.7227C171.658 18.7227 171.736 18.7568 171.805 18.8252C172.195 19.1963 172.64 19.499 173.138 19.7334C173.646 19.9678 174.192 20.085 174.778 20.085C174.935 20.085 175.115 20.0703 175.32 20.041C175.525 20.002 175.721 19.9434 175.906 19.8652C176.092 19.7871 176.243 19.6846 176.36 19.5576C176.487 19.4209 176.551 19.2549 176.551 19.0596C176.551 18.8447 176.497 18.6494 176.39 18.4736C176.282 18.2881 176.141 18.1367 175.965 18.0195C175.867 17.9512 175.696 17.834 175.452 17.668C175.208 17.4922 174.944 17.3066 174.661 17.1113C174.388 16.916 174.124 16.7305 173.87 16.5547C173.626 16.3789 173.455 16.252 173.357 16.1738C172.918 15.8418 172.566 15.5049 172.303 15.1631C172.049 14.8213 171.854 14.4697 171.717 14.1084C171.58 13.7373 171.492 13.3516 171.453 12.9512C171.414 12.5508 171.395 12.126 171.395 11.6768C171.395 10.9932 171.575 10.3486 171.937 9.74316C172.298 9.1377 172.771 8.60547 173.357 8.14648C173.953 7.6875 174.627 7.32617 175.379 7.0625C176.131 6.78906 176.897 6.65234 177.679 6.65234C178.323 6.65234 178.958 6.75 179.583 6.94531C180.208 7.14062 180.789 7.47266 181.326 7.94141C181.375 8.55664 181.409 9.16211 181.429 9.75781C181.448 10.3535 181.478 10.9785 181.517 11.6328C181.517 11.7598 181.487 11.8477 181.429 11.8965C181.37 11.9355 181.302 11.9551 181.224 11.9551C181.155 11.9551 181.097 11.9307 181.048 11.8818C180.823 11.667 180.594 11.457 180.359 11.252C180.125 11.0371 179.876 10.8516 179.612 10.6953C179.358 10.5293 179.085 10.3975 178.792 10.2998C178.499 10.1924 178.187 10.1387 177.854 10.1387C177.649 10.1387 177.444 10.1582 177.239 10.1973C177.034 10.2266 176.849 10.29 176.683 10.3877C176.517 10.4756 176.38 10.5977 176.272 10.7539C176.175 10.9102 176.126 11.1104 176.126 11.3545C176.126 11.6377 176.16 11.8818 176.229 12.0869C176.297 12.292 176.458 12.4922 176.712 12.6875L179.437 14.5332C179.935 14.875 180.335 15.2119 180.638 15.5439C180.95 15.8662 181.194 16.1885 181.37 16.5107C181.546 16.833 181.663 17.1553 181.722 17.4775C181.79 17.79 181.824 18.1025 181.824 18.415C181.824 19.2939 181.619 20.0703 181.209 20.7441C180.809 21.4082 180.286 21.9648 179.642 22.4141C178.997 22.8535 178.265 23.1855 177.444 23.4102C176.634 23.6445 175.818 23.7617 174.998 23.7617C174.373 23.7617 173.768 23.6934 173.182 23.5566C172.605 23.4297 172.068 23.2295 171.57 22.9561L171.38 18.957Z" fill="#111111"/>
<path d="M94.0605 23.4688C94.1094 22.7559 94.1582 22.0674 94.207 21.4033C94.2559 20.7393 94.2998 20.0947 94.3389 19.4697L94.8662 12.5557C94.9248 12.0283 94.9736 11.5498 95.0127 11.1201C95.0518 10.6807 95.0811 10.2559 95.1006 9.8457C95.1299 9.42578 95.1543 9.00586 95.1738 8.58594C95.2031 8.15625 95.2324 7.68262 95.2617 7.16504C94.9395 7.15527 94.5977 7.15039 94.2363 7.15039C93.8848 7.15039 93.5137 7.15039 93.123 7.15039H90.2959C90.1885 7.15039 90.1201 7.11133 90.0908 7.0332C90.0713 6.94531 90.0615 6.86719 90.0615 6.79883V6.69629L91.6729 2.46289L91.6582 2.4043C91.6582 2.35547 91.6875 2.31641 91.7461 2.28711C91.8145 2.24805 91.9609 2.21875 92.1855 2.19922C93.5332 2.12109 94.8369 2.04785 96.0967 1.97949C97.3662 1.90137 98.6162 1.83301 99.8467 1.77441C101.087 1.71582 102.322 1.65723 103.553 1.59863C104.793 1.54004 106.067 1.48633 107.376 1.4375C107.493 1.4375 107.615 1.45215 107.742 1.48145C107.879 1.51074 107.947 1.61816 107.947 1.80371C107.947 1.82324 107.942 1.84277 107.933 1.8623C107.923 1.88184 107.918 1.90137 107.918 1.9209C107.762 2.32129 107.615 2.70215 107.479 3.06348C107.352 3.4248 107.225 3.78125 107.098 4.13281C106.971 4.48438 106.839 4.84082 106.702 5.20215C106.575 5.56348 106.434 5.94434 106.277 6.34473C106.268 6.35449 106.248 6.40332 106.219 6.49121C106.189 6.56934 106.146 6.66211 106.087 6.76953C106.028 6.86719 105.95 6.95996 105.853 7.04785C105.755 7.13574 105.633 7.18457 105.486 7.19434C105.438 7.18457 105.389 7.17969 105.34 7.17969C105.291 7.17969 105.237 7.17969 105.179 7.17969H101.268C101.219 7.67773 101.17 8.20508 101.121 8.76172C101.082 9.31836 101.033 9.86035 100.975 10.3877L99.9053 21.8281C99.8955 21.916 99.876 22.0039 99.8467 22.0918C99.8271 22.1797 99.7637 22.2432 99.6562 22.2822L95.5107 23.7764C95.4033 23.8154 95.2617 23.8643 95.0859 23.9229C94.9102 23.9814 94.7393 24.0107 94.5732 24.0107C94.4365 24.0107 94.3145 23.9766 94.207 23.9082C94.1094 23.8398 94.0605 23.7129 94.0605 23.5273V23.4688Z" fill="#0055FF"/>
</svg>
